<svg width="130" height="130" viewBox="0 0 130 130" fill="none" xmlns="http://www.w3.org/2000/svg">
<path d="M30.417 53.9478V119.779C30.417 124.71 34.3867 128.68 39.3177 128.68H103.515C108.446 128.68 112.415 124.71 112.415 119.779V49.8789L30.417 53.9478Z" fill="#D6F0FF"/>
<path d="M30.417 53.9478V119.779C30.417 120.037 30.4301 120.291 30.4513 120.542H91.8865C96.8175 120.542 100.787 116.572 100.787 111.642V73.5393L112.415 61.9113V49.8789L30.417 53.9478Z" fill="#CEEAFA"/>
<path d="M4.98193 35.0465V104.356C4.98193 109.28 8.94538 113.243 13.8687 113.243H84.1248C89.048 113.243 93.0115 109.28 93.0115 104.356V10.4111C93.0115 5.48788 89.048 1.52441 84.1248 1.52441H38.504L4.98193 35.0465Z" fill="#C4E2F2"/>
<path d="M38.504 1.52441L4.98193 35.0465H29.6173C34.5406 35.0465 38.504 31.083 38.504 26.1598V1.52441Z" fill="#32B2F6"/>
<path d="M112.132 21.3578C109.944 19.1698 106.421 19.1698 104.233 21.3578L54.3594 71.2315L73.5118 90.384L123.386 40.5103C125.574 38.3223 125.574 34.7993 123.386 32.6113L112.132 21.3578Z" fill="#594F5F"/>
<path d="M119.556 28.7812C121.744 30.9693 121.744 34.4923 119.556 36.6803L69.6819 86.5541L73.5119 90.3841L123.386 40.5104C125.574 38.3223 125.574 34.7993 123.386 32.6113L119.556 28.7812Z" fill="#463C4B"/>
<path d="M96.9942 28.5967L89.2241 36.3667L108.377 55.5191L116.147 47.7491L96.9942 28.5967Z" fill="#FDC574"/>
<path d="M112.317 43.9189L104.547 51.689L108.377 55.519L116.147 47.7489L112.317 43.9189Z" fill="#FBBA5B"/>
<path d="M112.132 21.3578C109.944 19.1698 106.421 19.1698 104.233 21.3578L95.3184 30.2724L114.471 49.4249L123.385 40.5103C125.573 38.3223 125.573 34.7993 123.385 32.6113L112.132 21.3578Z" fill="#FF491F"/>
<path d="M63.3434 71.9751H58.2748C56.9907 71.9752 55.8396 71.4256 55.0428 70.5479L50.893 74.6977C49.5616 76.0291 49.1294 77.112 49.0754 78.7867L49.1315 91.9331C49.1315 93.12 49.4563 94.0129 50.1013 94.6418C50.7301 95.2868 51.6231 95.6115 52.81 95.6115L65.9564 95.6678C67.6311 95.6138 68.714 95.1816 70.0454 93.8502L74.1952 89.7003C73.3176 88.9036 72.7679 87.7525 72.768 86.4684V81.3997L67.6988 81.3993C66.4924 81.3993 65.4034 80.9142 64.6153 80.1278C63.8289 79.3397 63.3438 78.2507 63.3438 77.0442L63.3434 71.9751Z" fill="#FFB7BD"/>
<path d="M59.5137 71.9756V73.2145C59.5137 75.8016 60.3964 77.5411 63.3724 77.5411C63.3543 77.3781 63.3435 77.2126 63.3435 77.0446L63.3432 71.9756H59.5137ZM68.9379 81.3998C68.9379 81.3998 68.5439 84.2171 70.3654 85.8706L66.2153 90.0204C64.8839 91.3518 63.801 91.7842 62.1262 91.8382L49.1311 91.7824L49.1317 91.9336C49.1317 93.1205 49.4564 94.0133 50.1014 94.6421C50.7302 95.2871 51.623 95.6118 52.8099 95.6118L65.9563 95.6682C67.631 95.6143 68.7139 95.1819 70.0453 93.8505L74.1954 89.7007C73.3177 88.9039 72.7678 87.7529 72.7679 86.4688V81.4001L68.9379 81.3998Z" fill="#FFA2BD"/>
<path d="M49.0876 81.6514L49.1317 91.9335C49.1317 93.1204 49.4565 94.0133 50.1014 94.6422C50.7303 95.2872 51.6232 95.6119 52.8101 95.6119L63.0922 95.6558L49.0876 81.6514Z" fill="#455A64"/>
<path d="M119.744 28.8271C121.935 31.0187 121.935 34.5467 119.744 36.738L110.815 45.6665L114.651 49.5024L123.58 40.5739C125.771 38.3824 125.771 34.8541 123.58 32.6626L119.744 28.8271Z" fill="#BF1E18"/>
<path d="M49.2087 91.9268L49.2092 92.0778C49.2092 93.2665 49.5343 94.1608 50.1803 94.7907C50.8101 95.4367 51.7044 95.7622 52.8932 95.7622L63.1916 95.8059L59.3557 91.97L49.2087 91.9268Z" fill="#453E64"/>
<path d="M21.6579 46.6729H27.2439C30.7605 46.6729 33.5916 49.504 33.5916 53.0205V58.6065C33.5916 62.123 30.7605 64.9541 27.2439 64.9541H21.6579C18.1414 64.9541 15.3103 62.123 15.3103 58.6065V53.0205C15.3103 49.504 18.1414 46.6729 21.6579 46.6729Z" fill="#219653"/>
<path d="M21.6579 77.2715H27.2439C30.7605 77.2715 33.5916 80.1026 33.5916 83.6192V89.2052C33.5916 92.7217 30.7605 95.5527 27.2439 95.5527H21.6579C18.1414 95.5527 15.3103 92.7217 15.3103 89.2052V83.6192C15.3103 80.1026 18.1414 77.2715 21.6579 77.2715Z" fill="#219653"/>
<path d="M41.6958 11.8037V12.8196H43.7257V11.8037H41.6958ZM46.7733 11.8037V12.8196H48.8051V11.8037H46.7733ZM51.8508 11.8037V12.8196H53.8826V11.8037H51.8508ZM56.9302 11.8037V12.8196H58.9601V11.8037H56.9302ZM62.0077 11.8037V12.8196H64.0394V11.8037H62.0077ZM67.0852 11.8037V12.8196H69.1169V11.8037H67.0852ZM72.1645 11.8037V12.8196H74.1944V11.8037H72.1645ZM77.242 11.8037V12.8196H79.2738V11.8037H77.242ZM82.3195 11.8037V12.8196H84.3513V11.8037H82.3195ZM87.3989 11.8037V12.8196H89.4288V11.8037H87.3989Z" fill="#FF491F"/>
<path d="M9.14185 103.557V104.573H11.1717V103.557H9.14185ZM14.2193 103.557V104.573H16.2511V103.557H14.2193ZM19.2968 103.557V104.573H21.3286V103.557H19.2968ZM24.3762 103.557V104.573H26.4061V103.557H24.3762ZM29.4537 103.557V104.573H31.4855V103.557H29.4537ZM34.5312 103.557V104.573H36.563V103.557H34.5312ZM39.6106 103.557V104.573H41.6405V103.557H39.6106ZM44.6881 103.557V104.573H46.7198V103.557H44.6881ZM49.7656 103.557V104.573H51.7973V103.557H49.7656ZM54.845 103.557V104.573H56.8748V103.557H54.845ZM59.9225 103.557V104.573H61.9542V103.557H59.9225ZM65 103.557V104.573H67.0317V103.557H65ZM70.0793 103.557V104.573H72.1092V103.557H70.0793ZM75.1568 103.557V104.573H77.1886V103.557H75.1568ZM80.2343 103.557V104.573H82.2661V103.557H80.2343ZM85.3137 103.557V104.573H87.3436V103.557H85.3137Z" fill="#FF491F"/>
<path d="M27.3771 83.6256C27.1162 83.6401 26.87 83.7532 26.7021 83.9216L23.6047 87.017L22.2756 85.6879C21.8784 85.2911 21.2348 85.2911 20.8377 85.6879C20.4408 86.085 20.4408 86.7286 20.8377 87.1258L22.8855 89.1761C23.2829 89.5742 23.928 89.5742 24.3254 89.1761L28.14 85.3596C28.5368 84.9624 28.5368 84.3188 28.14 83.9216C27.9136 83.6952 27.638 83.6111 27.3771 83.6256Z" fill="#D9DEFB"/>
<path d="M42.3605 59.2988C41.799 59.2996 41.3445 59.7551 41.3447 60.3165C41.3455 60.8772 41.7998 61.3315 42.3605 61.3323H50.5474C51.1086 61.3323 51.5638 60.8778 51.5647 60.3165C51.5649 59.7546 51.1094 59.2988 50.5474 59.2988H42.3605Z" fill="#455A64"/>
<path d="M27.4387 52.9788C27.1773 52.973 26.9102 53.0652 26.7021 53.2728L23.6047 56.3702L22.2756 55.0415C21.8784 54.6447 21.2348 54.6447 20.8377 55.0415C20.4408 55.4387 20.4408 56.0823 20.8377 56.4795L22.8855 58.5293C23.2835 58.9268 23.9285 58.926 24.3254 58.5273L28.14 54.7127C28.5382 54.3153 28.5382 53.6702 28.14 53.2728C27.9556 53.0884 27.7 52.9846 27.4387 52.9788Z" fill="#D9DEFB"/>
<path d="M42.3605 49.6631C41.7991 49.6638 41.3445 50.1194 41.3447 50.6808C41.3447 51.242 41.7992 51.6972 42.3605 51.698H56.6185C57.1795 51.697 57.6337 51.2418 57.6337 50.6808C57.634 50.1196 57.1797 49.6642 56.6185 49.6631H42.3605Z" fill="#455A64"/>
<path d="M48.882 33.0391C48.3202 33.0391 47.8647 33.4945 47.8647 34.0563C47.8645 34.6183 48.32 35.074 48.882 35.074H81.1689C81.7311 35.0743 82.1869 34.6185 82.1866 34.0563C82.1866 33.4943 81.7309 33.0388 81.1689 33.0391H48.882Z" fill="#455A64"/>
<path d="M48.882 23.9229C48.3208 23.9229 47.8656 24.3774 47.8647 24.9386C47.8645 25.5006 48.32 25.9563 48.882 25.9563H62.3662C62.9283 25.9566 63.3841 25.5008 63.3839 24.9386C63.3831 24.3772 62.9276 23.9226 62.3662 23.9229H48.882Z" fill="#455A64"/>
</svg>
