<svg width="130" height="130" viewBox="0 0 130 130" fill="none" xmlns="http://www.w3.org/2000/svg">
<path d="M75.1562 31.4844C74.0345 31.4844 73.125 30.5749 73.125 29.4531V17.2656C73.125 11.6655 68.5689 7.10938 62.9688 7.10938C57.3686 7.10938 52.8125 11.6655 52.8125 17.2656V29.4531C52.8125 30.5749 51.903 31.4844 50.7812 31.4844C49.6595 31.4844 48.75 30.5749 48.75 29.4531V17.2656C48.75 9.42551 55.1286 3.04688 62.9688 3.04688C70.8089 3.04688 77.1875 9.42551 77.1875 17.2656V29.4531C77.1875 30.5749 76.278 31.4844 75.1562 31.4844Z" fill="#A5C3DC"/>
<path d="M115.781 100.547H14.2188V45.7031C14.2188 41.2158 17.8565 37.5781 22.3438 37.5781H107.656C112.144 37.5781 115.781 41.2158 115.781 45.7031V100.547Z" fill="#463C4B"/>
<path d="M107.656 100.547H14.2188V45.7031C14.2188 41.2158 17.8565 37.5781 22.3438 37.5781H99.5312C104.019 37.5781 107.656 41.2158 107.656 45.7031V100.547Z" fill="#C4E2F2"/>
<path d="M22.3438 112.734H107.656C112.144 112.734 115.781 109.097 115.781 104.609V100.547H14.2188V104.609C14.2188 109.097 17.8565 112.734 22.3438 112.734Z" fill="#2D303B"/>
<path d="M99.5312 112.734H22.3438C17.8565 112.734 14.2188 109.097 14.2188 104.609V100.547H107.656V104.609C107.656 109.097 104.019 112.734 99.5312 112.734Z" fill="#3C3F4D"/>
<path d="M54.8438 112.734H73.125V120.859H54.8438V112.734Z" fill="#2D303B"/>
<path d="M54.8438 116.797H67.0312V120.859H54.8438V116.797Z" fill="#3C3F4D"/>
<path d="M83.2812 126.953H42.6562V124.922C42.6562 122.678 44.475 120.859 46.7188 120.859H79.2188C81.4625 120.859 83.2812 122.678 83.2812 124.922V126.953Z" fill="#3C3F4D"/>
<path d="M83.2812 126.953H71.0938V124.922C71.0938 122.678 72.9125 120.859 75.1562 120.859H79.2188C81.4625 120.859 83.2812 122.678 83.2812 124.922V126.953Z" fill="#2D303B"/>
<path d="M93.4375 92.4219H40.625C38.3812 92.4219 36.5625 90.6031 36.5625 88.3594V37.5781H97.5V88.3594C97.5 90.6031 95.6813 92.4219 93.4375 92.4219Z" fill="#463C4B"/>
<path d="M87.3438 86.3281H34.5312C32.2875 86.3281 30.4688 84.5094 30.4688 82.2656V25.3906C30.4688 23.1469 32.2875 21.3281 34.5312 21.3281H87.3438C89.5875 21.3281 91.4062 23.1469 91.4062 25.3906V82.2656C91.4062 84.5094 89.5875 86.3281 87.3438 86.3281Z" fill="#CE231C"/>
<path d="M75.1562 86.3281H34.5312C32.2875 86.3281 30.4688 84.5094 30.4688 82.2656V25.3906C30.4688 23.1469 32.2875 21.3281 34.5312 21.3281H75.1562C77.4 21.3281 79.2188 23.1469 79.2188 25.3906V82.2656C79.2188 84.5094 77.4 86.3281 75.1562 86.3281Z" fill="#E13A33"/>
<path d="M42.6562 34.1932C45.2738 34.1932 47.3958 32.0712 47.3958 29.4535C47.3958 26.8359 45.2738 24.7139 42.6562 24.7139C40.0385 24.7139 37.9165 26.8359 37.9165 29.4535C37.9165 32.0712 40.0385 34.1932 42.6562 34.1932Z" fill="#289BC3"/>
<path d="M67.0312 34.1932C69.6488 34.1932 71.7709 32.0712 71.7709 29.4535C71.7709 26.8359 69.6488 24.7139 67.0312 24.7139C64.4135 24.7139 62.2915 26.8359 62.2915 29.4535C62.2915 32.0712 64.4135 34.1932 67.0312 34.1932Z" fill="#289BC3"/>
<path d="M67.0312 31.4844C65.9095 31.4844 65 30.5749 65 29.4531V17.2656C65 11.6655 60.4439 7.10938 54.8438 7.10938C49.2436 7.10938 44.6875 11.6655 44.6875 17.2656V29.4531C44.6875 30.5749 43.778 31.4844 42.6562 31.4844C41.5345 31.4844 40.625 30.5749 40.625 29.4531V17.2656C40.625 9.42551 47.0036 3.04688 54.8438 3.04688C62.6839 3.04688 69.0625 9.42551 69.0625 17.2656V29.4531C69.0625 30.5749 68.153 31.4844 67.0312 31.4844Z" fill="#D7E6F0"/>
<path d="M108.366 58.3796L98.3331 46.6748C97.8044 46.0581 97.0325 45.7031 96.2203 45.7031H88.0953C86.5584 45.7031 85.3127 46.949 85.3127 48.4857V51.1197H71.094C68.8502 51.1197 67.0315 52.9384 67.0315 55.1822V68.7238C67.0315 70.9676 68.8502 72.7863 71.094 72.7863H85.3127V75.4203C85.3127 76.9572 86.5587 78.2029 88.0953 78.2029H96.2203C97.0328 78.2029 97.8044 77.8479 98.3331 77.2312L108.366 65.5263C109.219 64.531 109.687 63.2635 109.687 61.9529C109.687 60.6425 109.219 59.375 108.366 58.3796Z" fill="#FBBA5B"/>
<path d="M100.241 58.3796L90.2081 46.6748C89.6794 46.0581 88.9075 45.7031 88.0953 45.7031C86.5584 45.7031 85.3127 46.949 85.3127 48.4857V51.1197H71.094C68.8502 51.1197 67.0315 52.9384 67.0315 55.1822V68.7238C67.0315 70.9676 68.8502 72.7863 71.094 72.7863H85.3127V75.4203C85.3127 76.9572 86.5587 78.2029 88.0953 78.2029C88.9075 78.2029 89.6794 77.8479 90.2081 77.2312L100.241 65.5263C101.094 64.531 101.562 63.2635 101.562 61.9529C101.562 60.6425 101.094 59.375 100.241 58.3796Z" fill="#FDC574"/>
</svg>
