<svg width="130" height="130" viewBox="0 0 130 130" fill="none" xmlns="http://www.w3.org/2000/svg">
<path d="M52.8091 107.651C52.8091 111.037 51.0075 114.823 49.0918 117.696C47.1761 120.57 45.2832 122.465 45.2832 122.465C55.6487 122.761 78.5553 122.465 84.718 122.465C84.718 122.465 82.8251 120.57 80.9094 117.696C78.9937 114.823 77.1921 111.037 77.1921 107.651H52.8091Z" fill="#3C3F4D"/>
<path d="M52.809 107.651C52.809 109.637 52.1565 111.741 51.2578 113.737H78.7431C77.8444 111.741 77.1919 109.637 77.1919 107.651H52.809Z" fill="#463C4B"/>
<path d="M10.1498 24.3721C6.80896 24.3721 4.06201 27.119 4.06201 30.4598V103.588C4.06201 106.929 6.80896 109.676 10.1498 109.676H119.834C123.175 109.676 125.937 106.929 125.937 103.588V30.4598C125.937 27.119 123.175 24.3721 119.834 24.3721H10.1498Z" fill="#594F5F"/>
<path d="M14.2132 32.4844C13.9464 32.4853 13.6824 32.5388 13.4362 32.6418C13.1901 32.7448 12.9667 32.8953 12.7787 33.0846C12.5907 33.274 12.4419 33.4987 12.3407 33.7456C12.2395 33.9925 12.188 34.2568 12.189 34.5236V91.3976C12.1909 91.9339 12.4047 92.4476 12.7839 92.8268C13.1632 93.206 13.6769 93.42 14.2132 93.4219H115.771C116.038 93.4229 116.302 93.3715 116.549 93.2703C116.796 93.1691 117.02 93.0202 117.21 92.8322C117.399 92.6442 117.55 92.4207 117.653 92.1745C117.756 91.9284 117.809 91.6645 117.81 91.3976V34.5236C117.811 34.2556 117.759 33.9899 117.657 33.7421C117.555 33.4942 117.405 33.2688 117.215 33.0792C117.025 32.8897 116.8 32.7397 116.552 32.6376C116.304 32.5355 116.039 32.4834 115.771 32.4844H14.2132Z" fill="#B4DCF2"/>
<path d="M60.9361 97.4854C60.6693 97.4853 60.405 97.5377 60.1584 97.6397C59.9119 97.7418 59.6878 97.8915 59.4991 98.0802C59.3104 98.2689 59.1607 98.493 59.0585 98.7395C58.9564 98.986 58.9038 99.2502 58.9038 99.5171C58.9038 99.784 58.9564 100.048 59.0585 100.295C59.1607 100.541 59.3104 100.765 59.4991 100.954C59.6878 101.143 59.9119 101.292 60.1584 101.394C60.405 101.496 60.6693 101.549 60.9361 101.549H69.0631C69.33 101.549 69.5942 101.496 69.8408 101.394C70.0874 101.292 70.3114 101.143 70.5002 100.954C70.6889 100.765 70.8386 100.541 70.9407 100.295C71.0429 100.048 71.0954 99.784 71.0954 99.5171C71.0954 99.2502 71.0429 98.986 70.9407 98.7395C70.8386 98.493 70.6889 98.2689 70.5002 98.0802C70.3114 97.8915 70.0874 97.7418 69.8408 97.6397C69.5942 97.5377 69.33 97.4853 69.0631 97.4854H60.9361Z" fill="#463C4B"/>
<path d="M111.707 24.374C115.048 24.374 117.813 27.1191 117.813 30.4599V99.5263C117.813 102.867 115.048 105.612 111.707 105.612H10.1488C6.80801 105.612 4.06299 102.867 4.06299 99.5263V103.589C4.06299 106.93 6.80801 109.675 10.1488 109.675H119.832C123.173 109.675 125.938 106.93 125.938 103.589V30.4599C125.938 27.1191 123.173 24.374 119.832 24.374H111.707Z" fill="#463C4B"/>
<path d="M14.2113 32.4834C13.0895 32.4879 12.1837 33.4009 12.188 34.5227V91.3976C12.1921 92.5132 13.0957 93.4165 14.2113 93.4209H22.3363C21.22 93.4171 20.317 92.5139 20.313 91.3976V38.585C20.3089 37.4628 21.2142 36.55 22.3363 36.546H115.77C116.898 36.5418 117.813 37.4569 117.809 38.585V34.5227C117.813 33.3947 116.898 32.4791 115.77 32.4834H14.2113Z" fill="#C4E2F2"/>
<path d="M69.0669 107.651C69.0669 113.247 71.6421 118.419 74.383 122.529C78.1783 122.498 82.9625 122.467 84.7178 122.467C84.7178 122.467 82.8249 120.572 80.9092 117.699C78.9935 114.825 77.1919 111.039 77.1919 107.654L69.0669 107.651Z" fill="#463C4B"/>
<path d="M40.6185 125.93H89.3655C92.0745 125.93 92.0745 121.866 89.3655 121.866H40.521C37.7146 121.996 37.9095 126.06 40.6184 125.93H40.6185Z" fill="#3C3F4D"/>
<path d="M46.7188 12.1803V75.1572H64.998V12.1803C64.9939 11.0639 64.0901 10.1602 62.9737 10.1562H48.6455C47.5085 10.2599 46.7173 11.1355 46.7188 12.1803Z" fill="#68B1FC"/>
<path d="M44.6814 4.05373C45.8094 4.04943 46.725 4.96473 46.7206 6.09274V75.1575H28.4409V6.09274C28.4367 4.97057 29.343 4.05772 30.4652 4.05373H44.6814Z" fill="#CE231C"/>
<path d="M85.3144 4.05373C84.1864 4.04943 83.2708 4.96473 83.2752 6.09274V75.1575H101.568V6.09274C101.573 4.96473 100.657 4.04943 99.5292 4.05373H85.3144Z" fill="#33A664"/>
<path d="M67.0312 16.2442C65.9032 16.2399 64.9876 17.1552 64.992 18.2832V75.1574H83.2712V18.2832C83.2755 17.161 82.3691 16.2481 81.2469 16.2442H67.0312Z" fill="#FDC574"/>
<path d="M38.5937 4.05177C39.7217 4.0477 40.6372 4.96301 40.6329 6.09102V67.0325C40.6288 68.1547 39.7159 69.0601 38.5937 69.0558H30.4647C29.3484 69.0518 28.4454 68.1488 28.4414 67.0325V75.1576H46.7187V6.09102C46.7228 4.96301 45.8075 4.04747 44.6795 4.05177H38.5937Z" fill="#BF1E18"/>
<path d="M28.4414 16.2432V28.4346H46.7187V16.2432H28.4414Z" fill="#E7EBEF"/>
<path d="M40.625 16.2432V28.4346H46.7188V16.2432H40.625Z" fill="#DBE1E7"/>
<path d="M93.4374 4.05959C94.5655 4.05552 95.4809 4.97075 95.4766 6.09883V67.0403C95.4726 68.1625 94.5596 69.0679 93.4374 69.0636H85.3085C84.1922 69.0596 83.2891 68.1567 83.2852 67.0403V75.1652H101.562V6.09883C101.567 4.97075 100.651 4.05529 99.5233 4.05959H93.4374Z" fill="#219653"/>
<path d="M75.1462 16.2471C76.2742 16.243 77.1897 17.1582 77.1854 18.2863V67.0324C77.1813 68.1546 76.2684 69.06 75.1462 69.0557H67.0172C65.9009 69.0516 64.9979 68.1487 64.9939 67.0324V75.1575H83.2712V18.2863C83.2752 17.1582 82.36 16.2428 81.232 16.2471H75.1462Z" fill="#FBBA5B"/>
<path d="M56.873 10.1563C58.001 10.1522 58.9165 11.0672 58.9122 12.1953V67.0321C58.9081 68.1543 57.9952 69.0598 56.873 69.0555H48.744C47.6277 69.0514 46.7247 68.1485 46.7207 67.0321V75.1573H64.998V12.1953C65.002 11.0672 64.0868 10.152 62.9588 10.1563H56.873Z" fill="#32B2F6"/>
<path d="M46.7188 52.8096V65.001H64.996V52.8096H46.7188Z" fill="#E7EBEF"/>
<path d="M65.0039 28.4346V40.626H83.2812V28.4346H65.0039Z" fill="#E7EBEF"/>
<path d="M83.2852 52.8096V65.001H101.562V52.8096H83.2852Z" fill="#E7EBEF"/>
<path d="M95.4688 52.8096V65.001H101.562V52.8096H95.4688Z" fill="#DBE1E7"/>
<path d="M58.9062 52.8096V65.001H65V52.8096H58.9062Z" fill="#DBE1E7"/>
<path d="M77.1875 28.4346V40.6258H83.2812V28.4346H77.1875Z" fill="#DBE1E7"/>
<path d="M22.3476 73.1182C22.0792 73.1167 21.8131 73.1684 21.5648 73.2703C21.3165 73.3721 21.0908 73.522 20.9008 73.7117C20.7108 73.9013 20.5603 74.1268 20.458 74.3749C20.3556 74.6231 20.3034 74.889 20.3045 75.1574V83.2863C20.3055 83.5534 20.3592 83.8176 20.4625 84.0639C20.5658 84.3102 20.7167 84.5336 20.9065 84.7216C21.0962 84.9095 21.3212 85.0583 21.5685 85.1592C21.8158 85.2601 22.0805 85.3112 22.3476 85.3096H107.648C108.187 85.3117 108.704 85.0996 109.087 84.7202C109.469 84.3407 109.685 83.825 109.687 83.2863V75.1574C109.688 74.8894 109.636 74.6237 109.534 74.3759C109.432 74.128 109.282 73.9026 109.092 73.7131C108.903 73.5235 108.678 73.3733 108.43 73.2712C108.182 73.1691 107.916 73.1172 107.648 73.1182H22.3476Z" fill="#FCB860"/>
<path d="M22.3476 85.3096C21.2181 85.3161 20.3001 84.3999 20.3045 83.2704V79.2078C20.3002 80.3373 21.2181 81.2531 22.3476 81.2471H99.5232C100.651 81.2514 101.566 80.3358 101.562 79.2078V75.1415C101.558 74.0197 100.645 73.1141 99.5232 73.1182H107.648C108.77 73.114 109.683 74.0197 109.687 75.1415V83.2704C109.692 84.3984 108.776 85.3139 107.648 85.3096H22.3476Z" fill="#FBB04F"/>
</svg>
