<svg width="1119" height="438" viewBox="0 0 1119 438" fill="none" xmlns="http://www.w3.org/2000/svg">
<path opacity="0.3" d="M898 137.998C837.5 103.998 840.624 39.78 794.036 29.6502C729.246 15.5282 740.5 51.5 627.065 23.7697C550.5 -20.5 450.315 20.3402 376.004 20.3402C301.694 20.3402 223.709 35.114 194.411 61.6063C163.364 89.7009 192.206 122.345 178.73 152.462C156.924 201.346 29.3048 235.294 8.02329 284.177C-4.15757 312.177 -7.20968 372.122 33.6732 395.681C109.656 448.602 66 435.391 465.716 435.391C563.723 429.607 913.276 450.183 987.656 424.763C1062.04 399.344 1059 199.498 898 137.998Z" fill="#ABD5E6"/>
<path opacity="0.3" d="M940 137.834C879.5 103.834 882.624 39.616 836.036 29.4861C771.246 15.3641 782.5 51.3359 669.065 23.6057C592.5 -20.6641 492.315 20.1761 418.004 20.1761C343.694 20.1761 265.709 34.9499 236.411 61.4422C205.364 89.5369 234.206 122.18 220.73 152.298C198.924 201.182 71.3048 235.129 50.0233 284.013C37.8424 312.013 34.7903 371.958 75.6732 395.517C151.656 448.438 108 435.227 507.716 435.227C605.723 429.443 955.276 450.019 1029.66 424.599C1104.04 399.18 1101 199.334 940 137.834Z" fill="#ABD5E6"/>
<path opacity="0.3" d="M982 134.834C921.5 100.834 924.624 36.616 878.036 26.4861C813.246 12.3641 824.5 48.3359 711.065 20.6057C634.5 -23.6641 534.315 17.1761 460.004 17.1761C385.694 17.1761 307.709 31.9499 278.411 58.4422C247.364 86.5369 276.206 119.18 262.73 149.298C240.924 198.182 113.305 232.129 92.0233 281.013C79.8424 309.013 76.7903 368.958 117.673 392.517C193.656 445.438 150 432.227 549.716 432.227C647.723 426.443 997.276 447.019 1071.66 421.599C1146.04 396.18 1143 196.334 982 134.834Z" fill="#ABD5E6"/>
</svg>
