<svg width="26" height="24" viewBox="0 0 26 24" fill="none" xmlns="http://www.w3.org/2000/svg">
<path d="M11.7146 0.766583C12.2213 -0.255527 13.6855 -0.255528 14.1922 0.766582L17.0168 6.46386C17.218 6.86974 17.607 7.15106 18.0569 7.21615L24.3729 8.12975C25.506 8.29365 25.9584 9.67982 25.1385 10.4754L20.5682 14.9101C20.2427 15.2261 20.0941 15.6813 20.1709 16.1274L21.2498 22.3893C21.4434 23.5127 20.2589 24.3694 19.2454 23.839L13.5963 20.8825C13.1938 20.6719 12.713 20.6719 12.3106 20.8825L6.6614 23.839C5.64793 24.3694 4.46342 23.5127 4.65697 22.3893L5.73587 16.1274C5.81273 15.6813 5.66415 15.2261 5.33856 14.9101L0.768303 10.4754C-0.0516157 9.67982 0.400825 8.29365 1.53393 8.12975L7.84987 7.21615C8.29983 7.15107 8.6888 6.86974 8.89002 6.46386L11.7146 0.766583Z" fill="#FFA800"/>
<path fill-rule="evenodd" clip-rule="evenodd" d="M25.4677 9.00992C19.4053 10.3752 13.4748 6.14572 12.75 0.0144758C13.3053 -0.0654026 13.9031 0.185299 14.1913 0.766582L17.0159 6.46386C17.2171 6.86974 17.6061 7.15106 18.056 7.21615L24.372 8.12975C24.9158 8.20841 25.3028 8.5686 25.4677 9.00992Z" fill="#FFBA00"/>
<path fill-rule="evenodd" clip-rule="evenodd" d="M5.18039 23.7147C4.79717 23.4239 4.56233 22.9383 4.65697 22.389L5.73587 16.1271C5.81273 15.681 5.66415 15.2258 5.33856 14.9099L0.768303 10.4752C0.325536 10.0455 0.253807 9.44367 0.459939 8.95508C6.09462 11.4013 8.4011 18.3547 5.18039 23.7147Z" fill="#FFBA00"/>
<path d="M12.5315 8.15808C12.7037 7.80668 13.2012 7.80668 13.3734 8.15808L14.3331 10.1168C14.4015 10.2563 14.5336 10.3531 14.6865 10.3754L16.8326 10.6895C17.2176 10.7459 17.3713 11.2224 17.0927 11.496L15.5398 13.0206C15.4292 13.1292 15.3787 13.2857 15.4048 13.4391L15.7714 15.592C15.8372 15.9782 15.4347 16.2727 15.0903 16.0904L13.1709 15.0739C13.0341 15.0015 12.8708 15.0015 12.734 15.0739L10.8145 16.0904C10.4702 16.2727 10.0677 15.9782 10.1335 15.592L10.5001 13.4391C10.5262 13.2857 10.4757 13.1292 10.3651 13.0206L8.81219 11.496C8.53359 11.2224 8.68732 10.7459 9.07233 10.6895L11.2184 10.3754C11.3713 10.3531 11.5034 10.2563 11.5718 10.1168L12.5315 8.15808Z" fill="white"/>
</svg>
