<svg width="120" height="106" viewBox="0 0 120 106" fill="none" xmlns="http://www.w3.org/2000/svg">
<path d="M78.946 5.84504C78.7512 5.69644 76.9475 4.35465 73.7344 3.06348C69.5951 1.39988 64.8455 0.520508 59.9994 0.520508C55.1532 0.520508 50.4038 1.39988 46.2641 3.06348C43.0512 4.35465 41.2475 5.69644 41.0525 5.84527C40.0742 6.59129 39.5 7.75121 39.5 8.98145V15.1692L43.4438 17.2786L47.3879 15.1692V11.2148C49.5523 10.1102 53.8808 8.40816 59.9991 8.40816C66.1177 8.40816 70.4459 10.1102 72.6104 11.2148V15.1689L76.5542 17.2783L80.4983 15.1689V8.98145C80.4987 7.75098 79.9245 6.59105 78.946 5.84504Z" fill="#DD5790"/>
<path d="M39.5 15.1689V19.5236L43.4441 21.633L47.3881 19.5236V15.1689H39.5Z" fill="#DA387D"/>
<path d="M80.4992 15.1689H72.6113V19.5236L76.5554 21.633L80.4992 19.5236V15.1689Z" fill="#DA387D"/>
<path d="M3.10547 62.9106V97.9478C3.10547 102.107 6.47742 105.479 10.6369 105.479H109.365C113.524 105.479 116.896 102.107 116.896 97.9478V62.9106H3.10547Z" fill="#365E7D"/>
<path d="M3.10547 58.5559V62.9108C9.36234 67.8786 25.8989 77.5225 60.0007 77.5225C94.1025 77.5225 110.639 67.8786 116.896 62.9106V58.5557H3.10547V58.5559Z" fill="#365E7D"/>
<path d="M2.77781 56.048C8.7743 60.93 25.2879 70.9224 60 70.9224C94.7121 70.9224 111.225 60.93 117.222 56.048C118.98 54.6169 120 50.363 120 48.0964V27.0553C120 22.8959 116.628 19.5239 112.469 19.5239H7.53141C3.37195 19.5239 0 22.8959 0 27.0553V48.0964C0 50.363 1.02 54.6169 2.77781 56.048Z" fill="#407093"/>
<path d="M117.222 53.9385C111.226 58.8205 94.7121 68.8128 60 68.8128C25.2879 68.8128 8.77453 58.8203 2.77781 53.9385C1.02 52.5074 0 50.3628 0 48.0962V52.4511C0 54.7178 1.02 56.8623 2.77781 58.2934C8.7743 63.1754 25.2879 73.1677 60 73.1677C94.7121 73.1677 111.225 63.1754 117.222 58.2934C118.98 56.8623 120 54.7178 120 52.4511V48.0962C120 50.3628 118.98 52.5074 117.222 53.9385Z" fill="#365E7D"/>
<path d="M60 80.4157C63.8962 80.4157 67.0547 77.5225 67.0547 71.2516V66.9743C67.0547 65.5877 65.9306 64.4639 64.5443 64.4639H55.4557C54.0691 64.4639 52.9453 65.5879 52.9453 66.9743V71.2523C52.9451 77.5225 56.1037 80.4157 60 80.4157Z" fill="#FFE27A"/>
<path d="M60 78.3062C56.1037 78.3062 52.9453 75.1477 52.9453 71.2515V75.6064C52.9453 79.5026 56.1037 82.6611 60 82.6611C63.8962 82.6611 67.0547 79.5026 67.0547 75.6064V71.2515C67.0547 75.1475 63.8962 78.3062 60 78.3062Z" fill="#F9CF58"/>
</svg>
