<svg width="110" height="120" viewBox="0 0 110 120" fill="none" xmlns="http://www.w3.org/2000/svg">
<path d="M49.4141 2.41757V25.8145C68.2803 25.8145 83.5744 41.1087 83.5744 59.9749H106.972C108.346 59.9749 109.444 58.8298 109.387 57.457C108.102 26.3091 83.0799 1.28742 51.932 0.0021026C50.559 -0.0546162 49.4141 1.04343 49.4141 2.41757Z" fill="#FFE07D"/>
<path d="M95.2865 46.6771C95.2865 51.2409 94.7934 55.6891 93.8659 59.9753H106.972C108.343 59.9753 109.444 58.8356 109.387 57.4661C108.598 38.2816 98.8047 21.4206 84.1211 10.9966C91.158 21.119 95.2865 33.415 95.2865 46.6771Z" fill="#FFD064"/>
<path d="M73.5689 84.1304C67.3871 90.3122 58.8469 94.1358 49.4138 94.1358C39.9806 94.1358 31.4405 90.3122 25.2586 84.1304L8.71455 100.674C7.74471 101.644 7.77307 103.23 8.78252 104.158C19.4728 113.994 33.7421 120 49.414 120C65.086 120 79.3549 113.994 90.0453 104.158C91.0547 103.229 91.0831 101.644 90.1132 100.674L73.5689 84.1304Z" fill="#C8EA73"/>
<path d="M32.7005 109.264C24.518 109.264 16.7032 107.691 9.53906 104.836C20.1419 114.267 34.1079 120 49.4147 120C65.0866 120 79.3556 113.994 90.0459 104.158C91.0554 103.229 91.0837 101.644 90.1139 100.674L78.6283 89.1885C67.1965 101.533 50.8526 109.264 32.7005 109.264Z" fill="#B7E445"/>
<path d="M83.5758 59.9751C83.5758 69.4082 79.7522 77.9484 73.5703 84.1302L83.9224 94.4823C92.7537 85.6511 98.2158 73.451 98.2158 59.9751H83.5758Z" fill="#DD5790"/>
<path d="M93.8672 59.9751C91.4588 71.1044 86.0919 81.1298 78.6289 89.1888L83.9225 94.4823C92.7537 85.6511 98.2158 73.451 98.2158 59.9751H93.8672Z" fill="#DA387D"/>
<path d="M15.2535 59.9752C15.2535 41.1089 30.5477 25.8148 49.4139 25.8148V11.1743C22.4619 11.1743 0.613281 33.0232 0.613281 59.9749C0.613281 73.4508 6.07539 85.651 14.9066 94.4822L25.2587 84.1301C19.0771 77.9485 15.2535 69.4083 15.2535 59.9752Z" fill="#407093"/>
<path d="M49.4144 58.2672C54.8047 58.2672 59.1745 53.8975 59.1745 48.5071C59.1745 43.1168 54.8047 38.7471 49.4144 38.7471C44.024 38.7471 39.6543 43.1168 39.6543 48.5071C39.6543 53.8975 44.024 58.2672 49.4144 58.2672Z" fill="#407093"/>
<path d="M31.3574 68.0281V73.9088C31.3574 75.2429 32.4388 76.3243 33.7729 76.3243H65.0545C66.3885 76.3243 67.4699 75.2429 67.4699 73.9088V68.0281C67.4699 62.6378 63.1002 58.2681 57.7098 58.2681H41.1175C35.7273 58.2678 31.3574 62.6378 31.3574 68.0281Z" fill="#365E7D"/>
</svg>
