<svg width="110" height="110" viewBox="0 0 110 110" fill="none" xmlns="http://www.w3.org/2000/svg">
<path d="M0.160156 54.2198V19.7391C0.160156 12.3204 6.17418 6.30615 13.5931 6.30615H96.4049C103.824 6.30615 109.838 12.3202 109.838 19.7391V75.5092C109.838 82.928 103.824 88.9422 96.4049 88.9422H70.0542C65.5296 88.9422 61.3091 86.6645 58.8257 82.8824L52.8044 73.7124C50.3209 69.9304 46.1005 67.6525 41.576 67.6525H13.5931C6.17439 67.6527 0.160156 61.6385 0.160156 54.2198Z" fill="#407093"/>
<path d="M89.3104 0H43.2174C37.5172 0 32.8965 4.62092 32.8965 10.3209V71.4943C32.8965 77.1945 37.5174 81.8152 43.2174 81.8152H89.3104C95.0106 81.8152 99.6313 77.1945 99.6313 71.4943V10.3209C99.6313 4.62092 95.0106 0 89.3104 0V0Z" fill="#EAF3FF"/>
<path d="M72.8319 15.7534H26.7388C21.0387 15.7534 16.418 20.3743 16.418 26.0743V87.2477C16.418 92.9479 21.0389 97.5686 26.7388 97.5686H72.8319C78.5321 97.5686 83.1528 92.9479 83.1528 87.2477V26.0743C83.1528 20.3741 78.5321 15.7534 72.8319 15.7534Z" fill="#FDFEFF"/>
<path d="M109.838 62.0862V96.5669C109.838 103.986 103.824 110 96.4049 110H13.5931C6.17439 110 0.160156 103.986 0.160156 96.5669V40.7967C0.160156 33.378 6.17418 27.3638 13.5931 27.3638H39.9439C44.4684 27.3638 48.689 29.6414 51.1723 33.4236L57.1937 42.5936C59.6772 46.3756 63.8976 48.6535 68.4221 48.6535H96.4047C103.824 48.6535 109.838 54.6675 109.838 62.0862Z" fill="#FFE07D"/>
<path d="M24.529 109.999H13.5938C6.17525 109.999 0.160156 103.984 0.160156 96.5657V40.7969C0.160156 33.3784 6.17525 27.3633 13.5938 27.3633H24.529C17.1105 27.3633 11.0954 33.3784 11.0954 40.7969V96.5657C11.0954 103.984 17.1105 109.999 24.529 109.999Z" fill="#FFD064"/>
<path d="M68.1559 42.6859C67.6557 42.6859 67.1788 42.4598 66.8619 42.0657L61.0809 34.8707C60.5065 34.1561 60.6205 33.1113 61.3354 32.5369C62.0502 31.9626 63.0952 32.0768 63.669 32.7912L67.8726 38.0228L73.952 26.5844C74.3824 25.7752 75.3872 25.4671 76.1967 25.8978C77.0064 26.328 77.3138 27.333 76.8836 28.1425L69.6219 41.805C69.3375 42.3445 68.7657 42.6879 68.1559 42.6859Z" fill="#B7E445"/>
<path d="M41.2747 60.5662H12.9608C12.044 60.5662 11.3008 59.823 11.3008 58.9062C11.3008 57.9893 12.0438 57.2461 12.9608 57.2461H41.2747C42.1916 57.2461 42.9348 57.9893 42.9348 58.9062C42.9346 59.8232 42.1916 60.5662 41.2747 60.5662Z" fill="#DD5790"/>
<path d="M41.2747 66.7083H12.9608C12.044 66.7083 11.3008 65.9651 11.3008 65.0482C11.3008 64.1314 12.0438 63.3882 12.9608 63.3882H41.2747C42.1916 63.3882 42.9348 64.1314 42.9348 65.0482C42.9346 65.9651 42.1916 66.7083 41.2747 66.7083Z" fill="#DD5790"/>
</svg>
