<?xml version="1.0" encoding="UTF-8"?>
<svg width="52px" height="63px" viewBox="0 0 52 63" version="1.1" xmlns="http://www.w3.org/2000/svg" xmlns:xlink="http://www.w3.org/1999/xlink">
<defs></defs>
<g id="Our-Team" stroke="none" stroke-width="1" fill="none" fill-rule="evenodd" transform="translate(-1254.000000, -2160.000000)">
<g id="Group-19" transform="translate(0.000000, 2056.000000)">
<g id="ic_team" transform="translate(1248.000000, 96.000000)">
<path d="M39.3051497,46.3833644 L39.3051497,25.7066218 C39.3051497,24.1567114 38.0484051,22.9002608 36.4981322,22.9002608 C34.9478592,22.9002608 33.6911146,24.1567114 33.6911146,25.7066218 L33.6911146,41.7744299 C33.3217562,41.7504417 32.9473232,41.7296871 32.5683076,41.7122913 L32.5683076,24.3034413 C32.5683076,22.7535309 31.311563,21.4970802 29.7612901,21.4970802 C28.2110171,21.4970802 26.9542725,22.7535309 26.9542725,24.3034413 L26.9542725,41.7047957 C26.575366,41.7211328 26.2009348,41.7408215 25.8314655,41.7637379 L25.8314655,27.4465657 C25.8314655,25.8966553 24.5747209,24.6402046 23.0244479,24.6402046 C21.474175,24.6402046 20.2174304,25.8966553 20.2174304,27.4465657 L20.2174304,42.4231212 C19.8299693,42.4942481 19.4553486,42.5696298 19.0946234,42.6489974 L19.0946234,32.834779 C19.0946234,31.2848686 17.8378788,30.0284179 16.2876058,30.0284179 C14.7373329,30.0284179 13.4805883,31.2848686 13.4805883,32.834779 L13.4805883,57.0000252 C13.4434085,57.4063444 13.4244479,57.8173418 13.4244479,58.2323468 C13.4244479,66.3693766 20.7135664,72.9657425 29.7051497,72.9657425 C38.696733,72.9657425 45.9858515,66.3693766 45.9858515,58.2323468 C45.9858515,58.2280332 45.9948006,57.1382283 46.0126987,54.9629321 C46.0319998,54.830081 46.0419918,54.694214 46.0419918,54.5560138 L46.0419918,38.6158828 C46.0419918,37.0659724 44.7852472,35.8095217 43.2349743,35.8095217 C41.6847013,35.8095217 40.4279567,37.0659724 40.4279567,38.6158828 L40.4279567,48.8605661 C40.0676955,48.7790715 39.3006466,47.9298732 39.3051497,46.3833644 Z" id="Combined-Shape-Copy-5" fill="#EE7C00" transform="translate(29.733220, 47.231411) rotate(-45.000000) translate(-29.733220, -47.231411) "></path>
<path d="M43.7963778,45.8782194 L43.7963778,25.2014768 C43.7963778,23.6515664 42.5396332,22.3951158 40.9893602,22.3951158 C39.4390872,22.3951158 38.1823427,23.6515664 38.1823427,25.2014768 L38.1823427,41.2692849 C37.8129843,41.2452967 37.4385512,41.2245421 37.0595357,41.2071463 L37.0595357,23.7982963 C37.0595357,22.2483859 35.8027911,20.9919352 34.2525181,20.9919352 C32.7022451,20.9919352 31.4455006,22.2483859 31.4455006,23.7982963 L31.4455006,41.1996507 C31.066594,41.2159878 30.6921629,41.2356765 30.3226936,41.258593 L30.3226936,26.9414207 C30.3226936,25.3915103 29.065949,24.1350596 27.515676,24.1350596 C25.965403,24.1350596 24.7086585,25.3915103 24.7086585,26.9414207 L24.7086585,41.9179762 C24.3211974,41.9891031 23.9465767,42.0644848 23.5858515,42.1438524 L23.5858515,32.329634 C23.5858515,30.7797236 22.3291069,29.5232729 20.7788339,29.5232729 C19.2285609,29.5232729 17.9718164,30.7797236 17.9718164,32.329634 L17.9718164,56.4948802 C17.9346365,56.9011994 17.915676,57.3121968 17.915676,57.7272018 C17.915676,65.8642316 25.2047945,72.4605975 34.1963778,72.4605975 C43.1879611,72.4605975 50.4770795,65.8642316 50.4770795,57.7272018 C50.4770795,57.7228882 50.4860286,56.6330833 50.5039268,54.4577871 C50.5232279,54.324936 50.5332199,54.189069 50.5332199,54.0508688 L50.5332199,38.1107378 C50.5332199,36.5608274 49.2764753,35.3043768 47.7262023,35.3043768 C46.1759294,35.3043768 44.9191848,36.5608274 44.9191848,38.1107378 L44.9191848,48.3554211 C44.5589235,48.2739265 43.7918747,47.4247282 43.7963778,45.8782194 Z" id="Combined-Shape" fill="#FFD40F" transform="translate(34.224448, 46.726266) rotate(-45.000000) translate(-34.224448, -46.726266) "></path>
<g id="Group" transform="translate(23.566987, 17.616025) rotate(-30.000000) translate(-23.566987, -17.616025) translate(8.566987, 6.116025)" fill="#FFD40F">
<rect id="Rectangle-40" transform="translate(3.500000, 6.000000) rotate(-15.000000) translate(-3.500000, -6.000000) " x="2" y="1" width="3" height="10" rx="1.5"></rect>
<rect id="Rectangle-40-Copy" transform="translate(16.462219, 7.364143) rotate(-330.000000) translate(-16.462219, -7.364143) " x="14.9622195" y="2.36414327" width="3" height="10" rx="1.5"></rect>
<rect id="Rectangle-40-Copy-2" transform="translate(23.949909, 19.475035) rotate(-285.000000) translate(-23.949909, -19.475035) " x="22.4499085" y="14.4750348" width="3" height="10" rx="1.5"></rect>
</g>
</g>
</g>
</g>
</svg>