<svg width="120" height="120" viewBox="0 0 120 120" fill="none" xmlns="http://www.w3.org/2000/svg">
<path d="M12.7988 6.39187V113.608C12.7988 117.138 15.6605 120 19.1907 120H100.807C104.337 120 107.199 117.138 107.199 113.608V28.1892L79.0098 0H19.1909C15.6608 0 12.7988 2.86172 12.7988 6.39187Z" fill="#EAECF0"/>
<path d="M100.807 120C104.337 120 107.199 117.138 107.199 113.608V28.1891L85.2461 6.23608V32.6544C85.2461 35.3218 87.4084 37.4839 90.0756 37.4839H94.5634V120H100.807Z" fill="#D3D7DE"/>
<path d="M79.0098 0L107.199 28.1892H83.8395C81.1723 28.1892 79.01 26.0269 79.01 23.3597V0H79.0098Z" fill="#DF705D"/>
<path d="M60.8597 18.1125H24.3987C23.3986 18.1125 22.5879 17.3018 22.5879 16.3018C22.5879 15.3014 23.3986 14.491 24.3987 14.491H60.8597C61.8598 14.491 62.6705 15.3017 62.6705 16.3018C62.6705 17.3018 61.8598 18.1125 60.8597 18.1125Z" fill="#676E84"/>
<path d="M60.8597 30.0246H24.3987C23.3986 30.0246 22.5879 29.2139 22.5879 28.2139C22.5879 27.2135 23.3986 26.4031 24.3987 26.4031H60.8597C61.8598 26.4031 62.6705 27.2138 62.6705 28.2139C62.6705 29.2139 61.8598 30.0246 60.8597 30.0246Z" fill="#676E84"/>
<path d="M90.737 100.78H29.2586C26.5734 100.78 24.3965 98.603 24.3965 95.9177V52.7276C24.3965 50.0424 26.5734 47.8655 29.2586 47.8655H90.7373C93.4225 47.8655 95.5994 50.0424 95.5994 52.7276V95.918C95.5991 98.603 93.4223 100.78 90.737 100.78Z" fill="#DF705D"/>
<path d="M90.7399 47.8655H82.8867V100.78H90.7399C93.4252 100.78 95.602 98.603 95.602 95.9177V52.7276C95.602 50.0424 93.4252 47.8655 90.7399 47.8655Z" fill="#CF5748"/>
<path d="M52.3047 79.2328V69.2128C52.3047 63.6347 55.6448 61.5342 60.0175 61.5342C64.356 61.5342 67.7648 63.6347 67.7648 69.2128V79.2328C67.7648 84.8109 64.356 86.9114 60.0175 86.9114C55.6448 86.9114 52.3047 84.8109 52.3047 79.2328ZM64.1151 69.213C64.1151 66.1828 62.5656 64.7711 60.0175 64.7711C57.4352 64.7711 55.9544 66.1828 55.9544 69.213V79.233C55.9544 82.2632 57.4349 83.6749 60.0175 83.6749C62.5656 83.6749 64.1151 82.2632 64.1151 79.233V69.213Z" fill="#EAECF0"/>
</svg>
